HIERARCHY
ROOT hip
{
	OFFSET 0.000000 0.000000 0.000000
	CHANNELS 6 Xposition Yposition Zposition Zrotation Yrotation Xrotation 
	JOINT lhipjoint
	{
		OFFSET 0.000000 0.000000 0.000000
		CHANNELS 3 Zrotation Yrotation Xrotation
		JOINT lfemur
		{
			OFFSET 1.363060 -1.794630 0.839290
			CHANNELS 3 Zrotation Yrotation Xrotation
			JOINT ltibia
			{
				OFFSET 2.448110 -6.726130 0.000000
				CHANNELS 3 Zrotation Yrotation Xrotation
				JOINT lfoot
				{
					OFFSET 2.562200 -7.039590 0.000000
					CHANNELS 3 Zrotation Yrotation Xrotation
					JOINT ltoes
					{
						OFFSET 0.157640 -0.433110 2.322550
						CHANNELS 3 Zrotation Yrotation Xrotation
						End Site
						{
							OFFSET 0.000000 0.000000 0.000000
						}
					}
				}
			}
		}
	}
	JOINT rhipjoint
	{
		OFFSET 0.000000 0.000000 0.000000
		CHANNELS 3 Zrotation Yrotation Xrotation
		JOINT rfemur
		{
			OFFSET -1.305520 -1.794630 0.839290
			CHANNELS 3 Zrotation Yrotation Xrotation
			JOINT rtibia
			{
				OFFSET -2.542530 -6.985550 0.000000
				CHANNELS 3 Zrotation Yrotation Xrotation
				JOINT rfoot
				{
					OFFSET -2.568260 -7.056230 0.000000
					CHANNELS 3 Zrotation Yrotation Xrotation
					JOINT rtoes
					{
						OFFSET -0.164730 -0.452590 2.363150
						CHANNELS 3 Zrotation Yrotation Xrotation
						End Site
						{
							OFFSET 0.000000 0.000000 0.000000
						}
					}
				}
			}
		}
	}
	JOINT lowerback
	{
		OFFSET 0.000000 0.000000 0.000000
		CHANNELS 3 Zrotation Yrotation Xrotation
		JOINT upperback
		{
			OFFSET 0.028270 2.035590 -0.193380
			CHANNELS 3 Zrotation Yrotation Xrotation
			JOINT thorax
			{
				OFFSET 0.056720 2.048850 -0.042750
				CHANNELS 3 Zrotation Yrotation Xrotation
				JOINT lowerneck
				{
					OFFSET 0.000000 0.000000 0.000000
					CHANNELS 3 Zrotation Yrotation Xrotation
					JOINT upperneck
					{
						OFFSET -0.054170 1.746240 0.172020
						CHANNELS 3 Zrotation Yrotation Xrotation
						JOINT head
						{
							OFFSET 0.104070 1.761360 -0.123970
							CHANNELS 3 Zrotation Yrotation Xrotation
							End Site
							{
								OFFSET 0.000000 0.000000 0.000000
							}
						}
					}
				}
				JOINT lclavicle
				{
					OFFSET 0.000000 0.000000 0.000000
					CHANNELS 3 Zrotation Yrotation Xrotation
					JOINT lhumerus
					{
						OFFSET 3.362410 1.200890 -0.311210
						CHANNELS 3 Zrotation Yrotation Xrotation
						JOINT lradius
						{
							OFFSET 4.983000 -0.000000 -0.000000
							CHANNELS 3 Zrotation Yrotation Xrotation
							JOINT lwrist
							{
								OFFSET 3.483560 -0.000000 -0.000000
								CHANNELS 3 Zrotation Yrotation Xrotation
								JOINT lhand
								{
									OFFSET 0.000000 0.000000 0.000000
									CHANNELS 3 Zrotation Yrotation Xrotation
									JOINT lfingers
									{
										OFFSET 0.715260 -0.000000 -0.000000
										CHANNELS 3 Zrotation Yrotation Xrotation
										End Site
										{
											OFFSET 0.000000 0.000000 0.000000
										}
									}
								}
								JOINT lthumb
								{
									OFFSET 0.000000 0.000000 0.000000
									CHANNELS 3 Zrotation Yrotation Xrotation
									End Site
									{
										OFFSET 0.000000 0.000000 0.000000
									}
								}
							}
						}
					}
				}
				JOINT rclavicle
				{
					OFFSET 0.000000 0.000000 0.000000
					CHANNELS 3 Zrotation Yrotation Xrotation
					JOINT rhumerus
					{
						OFFSET -3.136600 1.374050 -0.404650
						CHANNELS 3 Zrotation Yrotation Xrotation
						JOINT rradius
						{
							OFFSET -5.241900 -0.000000 -0.000000
							CHANNELS 3 Zrotation Yrotation Xrotation
							JOINT rwrist
							{
								OFFSET -3.444170 -0.000000 -0.000000
								CHANNELS 3 Zrotation Yrotation Xrotation
								JOINT rhand
								{
									OFFSET 0.000000 0.000000 0.000000
									CHANNELS 3 Zrotation Yrotation Xrotation
									JOINT rfingers
									{
										OFFSET -0.622530 -0.000000 -0.000000
										CHANNELS 3 Zrotation Yrotation Xrotation
										End Site
										{
											OFFSET 0.000000 0.000000 0.000000
										}
									}
								}
								JOINT rthumb
								{
									OFFSET 0.000000 0.000000 0.000000
									CHANNELS 3 Zrotation Yrotation Xrotation
									End Site
									{
										OFFSET 0.000000 0.000000 0.000000
									}
								}
							}
						}
					}
				}
			}
		}
	}
}
MOTION
Frames: 10
Frame Time: 0.008333
0.299589 17.985414 1.980181 -174.165476 -7.227748 169.312825 -1.921075 2.826159 2.093060 -9.467746 3.083034 4.233410 0.676090 5.100640 15.790826 0.507524 -1.829254 3.917397 0.824000 -5.791700 -16.181300 0.304918 -4.167727 1.372792 25.222328 0.069000 4.738537 -1.874940 -6.208340 22.108337 4.219092 -18.941128 -8.251912 -0.085700 1.888500 -5.197700 2.548039 0.140764 12.881614 1.511756 -0.852757 -2.383525 3.916686 -0.430605 7.012378 -6.433184 -6.966178 -11.823964 0.420569 -8.062951 3.529387 4.327000 -3.455300 2.990500 -0.273645 2.947014 0.705516 -73.185701 -0.692606 36.394141 101.149497 -61.919500 -62.821099 -1.358587 1.713686 -71.807802 21.083262 -13.035816 -5.393400 -7.125000 0.000000 0.000000 -5.186400 13.998600 3.793700 1.324628 0.299812 2.325207 78.720983 -7.122328 30.656848 -129.945293 44.944589 -91.417503 1.118033 -2.531560 0.429863 -46.180376 6.302728 -10.511700 7.125000 0.000000 0.000000 -14.022000 -15.906000 -9.948400 
0.298360 17.984594 1.982128 -174.168283 -7.228675 169.286183 -1.920971 2.827364 2.092111 -9.474713 3.085188 4.248409 0.678365 5.108417 15.812702 0.508337 -1.834319 3.908364 0.824200 -5.792200 -16.182800 0.304371 -4.166788 1.370960 25.209330 0.048663 4.756934 -1.875595 -6.209244 22.112053 4.216438 -18.930706 -8.246204 -0.085700 1.888500 -5.197500 2.554025 0.150933 12.914020 1.513112 -0.840761 -2.377928 3.930445 -0.429880 7.015858 -6.490429 -7.026874 -11.804318 0.445675 -8.135515 3.468221 4.352200 -3.484100 2.968200 -0.271883 2.964877 0.710034 -73.191312 -1.197003 37.177460 101.265463 -61.857381 -62.870126 -1.400963 1.731442 -72.315946 21.581596 -13.196309 -5.609200 -7.125000 0.000000 0.000000 -4.872000 13.723500 3.590400 1.313780 0.294986 2.323920 78.768434 -6.823475 31.705385 -129.829092 44.936000 -91.221161 1.121450 -2.535824 0.587030 -46.609268 6.063972 -10.455800 7.125000 0.000000 0.000000 -14.355300 -16.090900 -10.141200 
0.297232 17.983876 1.984691 -174.165199 -7.230476 169.249337 -1.920558 2.828425 2.090846 -9.477619 3.081364 4.269392 0.680167 5.115048 15.830027 0.507489 -1.828846 3.904046 0.827400 -5.803300 -16.214900 0.303705 -4.165463 1.368509 25.205937 0.038692 4.781278 -1.877150 -6.211158 22.118791 4.218760 -18.938739 -8.241070 -0.086300 1.894400 -5.214000 2.561853 0.157183 12.956659 1.514664 -0.835554 -2.370345 3.941677 -0.433202 7.024337 -6.539965 -7.079422 -11.790098 0.472462 -8.198071 3.395541 4.377200 -3.507000 2.939800 -0.266649 2.985886 0.716960 -73.231681 -1.766155 38.006931 101.241154 -61.823189 -62.788318 -1.443637 1.756967 -72.809706 22.149431 -13.427657 -5.876700 -7.125000 0.000000 0.000000 -4.521400 13.356700 3.365400 1.301377 0.290102 2.322878 78.818497 -6.518595 32.951244 -129.645926 44.944573 -90.940454 1.125524 -2.541020 0.799033 -47.139848 5.711298 -10.321400 7.125000 0.000000 0.000000 -14.781800 -16.400400 -10.360800 
0.295592 17.982954 1.987048 -174.144651 -7.239660 169.215774 -1.919050 2.828982 2.089410 -9.461315 3.076454 4.287106 0.681748 5.122486 15.847877 0.509015 -1.836672 3.901751 0.827500 -5.803700 -16.216000 0.303849 -4.165131 1.365094 25.212823 -0.016717 4.788946 -1.878807 -6.212187 22.124162 4.218263 -18.932128 -8.205339 -0.090300 1.938100 -5.334700 2.602107 0.169543 12.984386 1.514870 -0.821327 -2.360600 3.931952 -0.428289 7.046997 -6.575076 -7.147017 -11.779651 0.492572 -8.282782 3.327492 4.395400 -3.541000 2.914100 -0.259273 3.009515 0.724876 -73.277361 -2.399190 38.977756 101.145818 -61.800776 -62.636811 -1.492711 1.787857 -73.242473 22.890162 -13.680389 -6.218500 -7.125000 0.000000 0.000000 -4.060900 12.927400 3.057300 1.289610 0.285268 2.321783 78.873046 -6.247556 34.356501 -129.444433 44.949509 -90.626834 1.129950 -2.542988 1.098477 -47.814841 5.272007 -10.141000 7.125000 0.000000 0.000000 -15.325600 -16.795600 -10.633800 
0.294875 17.982031 1.989815 -174.145925 -7.244929 169.181921 -1.918910 2.830035 2.087400 -9.466546 3.077358 4.307411 0.683710 5.129395 15.866133 0.509866 -1.841993 3.898770 0.827600 -5.804200 -16.217200 0.302828 -4.163569 1.361744 25.203720 -0.034788 4.813288 -1.879866 -6.213452 22.129034 4.217843 -18.930636 -8.204136 -0.089900 1.934000 -5.323400 2.592634 0.175648 13.021160 1.517875 -0.819281 -2.350538 3.965708 -0.436414 7.073651 -6.642466 -7.203963 -11.786358 0.520018 -8.348818 3.259943 4.422900 -3.565500 2.893500 -0.249594 3.034402 0.733391 -73.368025 -3.121015 39.982413 100.922049 -61.804686 -62.369074 -1.546252 1.821136 -73.661515 23.726189 -13.931351 -6.604300 -7.125000 0.000000 0.000000 -3.541800 12.471800 2.698600 1.279656 0.275951 2.320133 78.874244 -5.958906 35.956838 -129.179119 44.972710 -90.234500 1.134068 -2.539684 1.450949 -48.620036 4.681838 -9.826100 7.125000 0.000000 0.000000 -15.993500 -17.377900 -10.922700 
0.293337 17.982441 1.993095 -174.143294 -7.266232 169.158134 -1.918740 2.830412 2.086669 -9.475242 3.058263 4.313237 0.684814 5.133901 15.878101 0.509198 -1.837259 3.905857 0.830800 -5.815100 -16.248700 0.303025 -4.162918 1.360065 25.189908 -0.071038 4.811134 -1.881189 -6.215656 22.137075 4.214025 -18.915659 -8.196575 -0.089400 1.928400 -5.307700 2.599245 0.182457 13.058817 1.518795 -0.810676 -2.346633 3.979609 -0.435905 7.066852 -6.684402 -7.264449 -11.755557 0.535562 -8.421358 3.188817 4.439400 -3.594100 2.862000 -0.236983 3.055608 0.741696 -73.452057 -3.887266 41.136288 100.627303 -61.821064 -62.033012 -1.605719 1.855317 -74.069936 24.720033 -14.183740 -7.061700 -7.125000 0.000000 0.000000 -2.922900 11.972500 2.256000 1.267351 0.272543 2.317778 78.896886 -5.710102 37.626655 -128.833922 45.021492 -89.741351 1.136900 -2.540571 1.781084 -49.484883 4.152876 -9.591900 7.125000 0.000000 0.000000 -16.684400 -17.849800 -11.255600 
0.292415 17.981929 1.996375 -174.139564 -7.290038 169.130565 -1.917165 2.830776 2.085060 -9.478717 3.046625 4.328708 0.685599 5.137737 15.887768 0.510468 -1.844574 3.914206 0.830900 -5.815300 -16.249500 0.303942 -4.161802 1.357694 25.184848 -0.088303 4.819167 -1.883198 -6.218640 22.146531 4.217620 -18.929564 -8.196728 -0.089800 1.932800 -5.320000 2.607519 0.188926 13.088020 1.517157 -0.805111 -2.339416 3.981440 -0.436034 7.075232 -6.726696 -7.326701 -11.722103 0.562394 -8.498850 3.108722 4.463900 -3.623700 2.825900 -0.226077 3.082420 0.750343 -73.522679 -4.710115 42.366687 100.244465 -61.860516 -61.616040 -1.666894 1.885248 -74.434175 25.789744 -14.384085 -7.543900 -7.125000 0.000000 0.000000 -2.252200 11.502500 1.759300 1.253941 0.266680 2.318155 78.886012 -5.444583 39.430443 -128.430122 45.087391 -89.175547 1.140352 -2.537418 2.061088 -50.439311 3.532272 -9.262700 7.125000 0.000000 0.000000 -17.458000 -18.436300 -11.590900 
0.291287 17.981519 2.000270 -174.154918 -7.313291 169.095846 -1.916341 2.831652 2.083556 -9.508110 3.024298 4.356336 0.686828 5.140810 15.896922 0.508637 -1.833663 3.915768 0.831200 -5.816200 -16.252000 0.305396 -4.161459 1.355477 25.141635 -0.150831 4.815442 -1.884824 -6.222463 22.156602 4.211549 -18.901004 -8.151811 -0.092600 1.962800 -5.402800 2.585756 0.200179 13.143296 1.514876 -0.795501 -2.333160 3.992040 -0.437433 7.072583 -6.740310 -7.385150 -11.704621 0.581050 -8.574521 3.031180 4.474200 -3.653700 2.793300 -0.211257 3.107241 0.758407 -73.626642 -5.591259 43.706165 99.901162 -61.889677 -61.228709 -1.735292 1.909088 -74.830777 26.942297 -14.508084 -8.044800 -7.125000 0.000000 0.000000 -1.522500 11.081700 1.201900 1.241120 0.259580 2.316971 78.853912 -5.137575 41.309246 -127.874495 45.215277 -88.424419 1.141124 -2.547710 2.248516 -51.316509 2.997521 -9.011000 7.125000 0.000000 0.000000 -18.153900 -18.892300 -11.908200 
0.290263 17.981006 2.003960 -174.152240 -7.352456 169.065600 -1.915525 2.832497 2.082741 -9.515719 3.000868 4.371393 0.687457 5.144490 15.905896 0.510221 -1.842869 3.929544 0.831200 -5.816300 -16.252400 0.305644 -4.160103 1.353091 25.131670 -0.183574 4.822560 -1.886901 -6.225112 22.166487 4.213196 -18.908517 -8.160211 -0.092200 1.958000 -5.389600 2.581771 0.200434 13.178767 1.516562 -0.796514 -2.327876 4.015057 -0.444011 7.066451 -6.788319 -7.450728 -11.641797 0.596722 -8.652488 2.943304 4.493700 -3.683600 2.745900 -0.194195 3.138412 0.767613 -73.780755 -6.503476 45.115596 99.553953 -61.929081 -60.811226 -1.802880 1.925539 -75.290570 27.933268 -14.551430 -8.463200 -7.125000 0.000000 0.000000 -0.893000 10.772000 0.710400 1.223714 0.249361 2.317012 78.802290 -4.744503 43.258158 -127.156463 45.414134 -87.471211 1.140556 -2.580456 2.309546 -51.970697 2.519417 -8.771900 7.125000 0.000000 0.000000 -18.683000 -19.282500 -12.122600 
0.289135 17.980494 2.007752 -174.152101 -7.380189 169.032880 -1.914410 2.833290 2.080521 -9.526208 2.989480 4.384566 0.688158 5.147794 15.914325 0.511136 -1.848034 3.945656 0.834300 -5.826700 -16.282500 0.307006 -4.158952 1.349419 25.111378 -0.241988 4.815656 -1.889259 -6.228833 22.176845 4.215444 -18.912059 -8.117991 -0.096900 2.007800 -5.527300 2.575164 0.207908 13.212698 1.516068 -0.792990 -2.318208 4.022750 -0.449668 7.092732 -6.809669 -7.504670 -11.649436 0.612551 -8.721349 2.879393 4.504100 -3.711100 2.725100 -0.175287 3.171953 0.774484 -73.970649 -7.470219 46.624940 99.360745 -61.937429 -60.512653 -1.877636 1.927901 -75.893722 28.794466 -14.464915 -8.781800 -7.125000 0.000000 0.000000 -0.331900 10.623500 0.265000 1.203155 0.230367 2.313106 78.745918 -4.224373 45.345455 -126.226405 45.701411 -86.241417 1.138924 -2.648312 2.239456 -52.324827 2.118641 -8.576900 7.125000 0.000000 0.000000 -18.985300 -19.567100 -12.213600 
